<svg width="97" height="16" viewBox="0 0 97 16" fill="none" xmlns="http://www.w3.org/2000/svg">
<g clip-path="url(#clip0_2198_20143)">
<path d="M95.4716 7.67689C94.6293 7.67689 93.9512 6.99951 93.9512 6.15644C93.9512 5.3141 94.6293 4.63672 95.4716 4.63672C96.3132 4.63672 96.9913 5.3141 96.9913 6.15644C96.9753 6.99951 96.2972 7.67689 95.4716 7.67689ZM95.4716 4.80095C94.7271 4.80095 94.1329 5.42943 94.1329 6.15571C94.1329 6.89951 94.7439 7.5112 95.4716 7.5112C96.1979 7.5112 96.8096 6.88418 96.8096 6.15571C96.8096 5.42943 96.1979 4.80095 95.4716 4.80095ZM95.868 6.94988L95.4556 6.27177H95.1731V6.94988H94.9913V5.3141H95.5205C95.803 5.3141 96.0337 5.51191 96.0337 5.79366C96.0337 6.04184 95.868 6.19075 95.6534 6.25644L96.0833 6.95061H95.868V6.94988ZM95.5045 5.49658H95.1731V6.09075H95.5045C95.7023 6.09075 95.8526 5.97469 95.8526 5.79293C95.8519 5.6287 95.7015 5.49658 95.5045 5.49658Z" fill="#6B665F"/>
<path d="M73.7234 4.68555C73.673 4.68555 73.6555 4.70234 73.1942 4.71839C72.7146 4.73445 71.8379 4.75124 70.019 4.75124H69.1773H68.6642H67.8219C66.0196 4.75124 65.1291 4.73445 64.6481 4.71839C64.1853 4.70234 64.17 4.68555 64.1196 4.68555C63.9043 4.68555 63.9043 4.81839 63.9043 5.23154V6.83374C63.9043 6.91622 63.9043 7.13155 64.0861 7.13155C64.2846 7.13155 64.3174 7.06513 64.632 6.4206C64.8299 5.97461 65.243 5.32935 67.6248 5.29723C67.8708 5.31329 67.9708 5.36292 67.9708 5.74322V13.8747C67.9708 14.5521 67.9708 15.0309 67.0956 15.0805C66.7313 15.1134 66.4832 15.1287 66.4832 15.3769C66.4832 15.6418 66.7145 15.6418 66.8459 15.6418C67.1781 15.6418 68.5978 15.5761 68.8963 15.5761C69.4751 15.5761 70.3832 15.6418 70.9628 15.6418C71.0927 15.6418 71.3263 15.6418 71.3263 15.3769C71.3263 15.1134 71.0781 15.0959 70.7138 15.0805C69.8372 15.0309 69.8372 14.5513 69.8372 13.8404V5.87534C69.8372 5.41183 69.8883 5.32935 70.3992 5.29723C72.581 5.36292 72.9766 5.97461 73.1759 6.40454C73.4898 7.04907 73.5234 7.11476 73.7219 7.11476C73.9044 7.11476 73.9044 6.90016 73.9044 6.81841V5.21402C73.9372 4.81839 73.9372 4.68555 73.7234 4.68555Z" fill="#6B665F"/>
<path d="M54.8311 12.8666C54.6661 12.8666 54.6333 12.9323 54.3187 13.544C53.5428 15.0309 52.4683 15.0309 51.6917 15.0309C50.2194 15.0309 49.8559 14.8331 49.8559 13.5922V10.5841C49.8559 10.0564 49.988 10.0564 50.8311 10.0564C52.2683 10.0564 52.7479 10.0717 53.1274 11.4279C53.2099 11.7586 53.3252 11.8411 53.4574 11.8411C53.6742 11.8411 53.6742 11.5929 53.6742 11.4944C53.6742 11.3601 53.6223 10.7498 53.6223 10.6163C53.6223 10.2381 53.7399 8.43667 53.7399 8.1885C53.7399 7.99068 53.6581 7.94032 53.542 7.94032C53.4588 7.94032 53.3588 7.97316 53.2771 8.20528C52.9625 9.13084 52.7982 9.51113 50.8646 9.51113C49.8566 9.51113 49.8566 9.37829 49.8566 8.81551V6.28848C49.8566 5.41256 49.9216 5.2965 50.7975 5.2965C53.2763 5.2965 53.7063 5.95855 53.9055 6.4206C54.2194 7.06513 54.2523 7.13082 54.4501 7.13082C54.6318 7.13082 54.6318 6.91622 54.6318 6.83301V5.23154C54.6318 4.83518 54.6318 4.68555 54.4165 4.68555C54.3669 4.68555 54.3508 4.70234 53.888 4.71839C53.4092 4.73445 52.5165 4.75124 50.715 4.75124H49.8719C48.3851 4.75124 47.6405 4.73445 47.2434 4.71839C46.8639 4.70234 46.8471 4.68555 46.8135 4.68555C46.6982 4.68555 46.4668 4.68555 46.4668 4.93372C46.4668 5.19796 46.715 5.21475 47.0953 5.23154C47.9705 5.28117 47.9705 5.76001 47.9705 6.47169V13.8593C47.9705 14.5696 47.9705 15.0484 47.0953 15.098C46.7303 15.1309 46.4668 15.1477 46.4668 15.3959C46.4668 15.6594 46.6982 15.6594 46.8303 15.6594C46.9464 15.6594 47.0953 15.644 47.3763 15.6265C47.6573 15.609 48.0865 15.5922 48.8143 15.5922H49.0289C49.1281 15.5922 49.9559 15.609 50.9457 15.6265C51.9537 15.6418 53.1763 15.6594 54.0683 15.6594C54.5822 15.6594 54.7464 15.4615 54.7625 15.1302C54.8129 14.4856 55.0114 13.3623 55.0114 13.1316C55.0304 13.0148 54.98 12.8666 54.8311 12.8666Z" fill="#6B665F"/>
<path d="M83.3724 12.8666C83.2059 12.8666 83.1738 12.9323 82.8592 13.544C82.0826 15.0309 81.0074 15.0309 80.2307 15.0309C78.7592 15.0309 78.3964 14.8331 78.3964 13.5922V10.5841C78.3964 10.0564 78.5292 10.0564 79.3709 10.0564C80.8088 10.0564 81.2891 10.0717 81.668 11.4279C81.7497 11.7586 81.8665 11.8411 81.9979 11.8411C82.2132 11.8411 82.2132 11.5929 82.2132 11.4944C82.2132 11.3601 82.1636 10.7498 82.1636 10.6163C82.1636 10.2381 82.2789 8.43667 82.2789 8.1885C82.2789 7.99068 82.1979 7.94032 82.0818 7.94032C81.9986 7.94032 81.9008 7.97316 81.8191 8.20528C81.5037 9.13084 81.3388 9.51113 79.4044 9.51113C78.3971 9.51113 78.3971 9.37829 78.3971 8.81551V6.28848C78.3971 5.41256 78.4628 5.2965 79.3387 5.2965C81.8183 5.2965 82.2461 5.95855 82.4453 6.4206C82.7607 7.06513 82.7921 7.13082 82.9906 7.13082C83.1723 7.13082 83.1723 6.91622 83.1723 6.83301V5.23154C83.1723 4.83518 83.1723 4.68555 82.9577 4.68555C82.9081 4.68555 82.8913 4.70234 82.4278 4.71839C81.9497 4.73445 81.0563 4.75124 79.2555 4.75124H78.4125C76.9249 4.75124 76.1818 4.73445 75.7832 4.71839C75.4037 4.70234 75.3869 4.68555 75.3555 4.68555C75.2387 4.68555 75.0059 4.68555 75.0059 4.93372C75.0059 5.19796 75.2548 5.21475 75.6343 5.23154C76.5095 5.28117 76.5095 5.76001 76.5095 6.47169V13.8593C76.5095 14.5696 76.5095 15.0484 75.6343 15.098C75.2708 15.1309 75.0059 15.1477 75.0059 15.3959C75.0059 15.6594 75.238 15.6594 75.3694 15.6594C75.4862 15.6594 75.6343 15.644 75.9161 15.6265C76.1956 15.6097 76.6256 15.5922 77.3533 15.5922H77.5701C77.6687 15.5922 78.4928 15.609 79.4862 15.6265C80.4942 15.6418 81.7183 15.6594 82.6103 15.6594C83.122 15.6594 83.2869 15.4615 83.3037 15.1302C83.3526 14.4856 83.5519 13.3623 83.5519 13.1316C83.5694 13.0148 83.5213 12.8666 83.3724 12.8666Z" fill="#6B665F"/>
<path d="M60.3345 8.89921C58.9133 8.30577 57.8724 7.85832 57.8724 6.60211C57.8724 5.90867 58.4352 4.90063 59.8228 4.91669C61.3097 4.93275 61.6243 5.90867 61.8396 6.60211C62.0206 7.1481 62.0878 7.26343 62.2695 7.26343C62.517 7.26343 62.517 7.11452 62.517 6.73423C62.517 5.16414 62.517 4.9999 62.3009 4.88385C62.0542 4.751 60.9973 4.4707 59.9724 4.4707C57.7082 4.4707 56.452 5.89188 56.452 7.54372C56.452 9.42841 57.8556 10.1394 59.3104 10.7671C60.5987 11.3613 61.8067 12.0386 61.8067 13.4277C61.8067 14.8664 60.4009 15.3606 59.6586 15.3606C58.3863 15.3606 57.1636 14.2868 56.8323 12.7328C56.8001 12.5671 56.7658 12.3861 56.6177 12.3861C56.4016 12.3861 56.387 12.6343 56.387 12.6985C56.3702 13.3445 56.4527 14.1044 56.487 14.335C56.5352 14.7795 56.6016 15.1445 56.8009 15.2774C57.1133 15.508 58.0067 15.8547 59.3943 15.8547C61.7746 15.8547 63.2294 14.2036 63.2294 12.2204C63.2104 10.2051 61.3425 9.32987 60.3345 8.89921Z" fill="#6B665F"/>
<path d="M18.2974 4.4707C14.8769 4.4707 12.2812 6.9335 12.2812 10.1394C12.2812 13.5438 15.1565 15.8562 18.2477 15.8562C21.255 15.8562 24.1806 13.427 24.1806 9.97367C24.1967 6.89919 21.6025 4.4707 18.2974 4.4707ZM18.3959 15.3774C16.0492 15.3774 14.3637 12.6518 14.3637 9.77586C14.3637 7.24664 15.9338 4.96706 18.0988 4.96706C20.8748 4.96706 22.1142 7.94227 22.1142 10.0569C22.1142 12.6175 20.8251 15.3774 18.3959 15.3774Z" fill="#6B665F"/>
<path d="M11.1709 0.421875C11.138 0.421875 11.1213 0.454722 10.4432 0.47151C9.78256 0.487569 8.46066 0.520416 5.8329 0.520416H5.28837C2.79272 0.520416 1.86717 0.486839 1.22264 0.47151C0.594166 0.438663 0.561319 0.421875 0.512413 0.421875C0.33066 0.421875 0 0.421875 0 0.769323C0 1.11604 0.380295 1.14962 0.909497 1.19925C2.16498 1.28174 2.16498 1.95911 2.16498 3V9.80882V13.4614C2.16498 14.3037 2.16498 14.8826 1.09052 14.9483C0.644531 14.9979 0.346718 15.014 0.346718 15.3118C0.346718 15.6257 0.627742 15.6257 0.792707 15.6257C1.20658 15.6257 2.99054 15.5446 3.35404 15.5446C4.065 15.5446 5.22194 15.6257 5.93217 15.6257C6.09786 15.6257 6.37816 15.6257 6.37816 15.3118C6.37816 14.9811 6.08107 14.9636 5.6183 14.9483C4.54383 14.8826 4.54383 14.3037 4.54383 13.4286V9.82414V9.54458C4.54383 8.83289 4.54383 8.53654 4.95698 8.43654C5.22121 8.37085 6.39494 8.37085 7.13802 8.37085C7.76649 8.37085 9.38621 8.37085 9.73293 9.74239C9.78256 9.87524 9.94826 10.519 10.0132 10.7015C10.0629 10.8315 10.1621 11.1132 10.4103 11.0979C10.7074 11.0811 10.7074 10.8001 10.7074 10.6176L10.6081 9.42852C10.5585 8.84968 10.5585 8.42048 10.5585 8.18982C10.5585 7.8088 10.6417 6.08981 10.6417 5.74309C10.6417 5.49491 10.5585 5.32995 10.3446 5.31243C10.1125 5.29637 9.99716 5.51024 9.94826 5.72484C9.63366 7.03069 9.26942 7.59274 7.22123 7.59274C6.84166 7.59274 5.33727 7.59274 4.95698 7.54456C4.62705 7.49493 4.56135 7.46208 4.56135 6.10732V2.57007C4.56135 1.38028 4.99128 1.33137 5.84968 1.33137C9.78329 1.33137 10.114 1.87663 10.857 3.56205C10.9563 3.77665 11.0548 4.07446 11.3366 4.07446C11.6176 4.07446 11.6176 3.67811 11.6176 3.59489V0.884653C11.6008 0.554723 11.5687 0.421875 11.1709 0.421875Z" fill="#6B665F"/>
<path d="M34.3887 15.1138C33.8931 15.0481 33.661 14.6007 33.2975 13.989L31.5952 10.9838C31.1989 10.2554 30.985 10.14 30.7529 10.0072C31.3478 9.89186 33.1493 9.46266 33.1493 7.41228C33.1493 6.80133 32.8843 4.66992 29.7945 4.66992C29.2653 4.66992 26.9521 4.73562 26.4726 4.73562C26.258 4.73562 25.3988 4.66992 25.2324 4.66992C24.6543 4.66992 24.5879 4.66992 24.5879 4.91737C24.5879 5.16555 24.8361 5.18161 25.2164 5.19912C26.0748 5.24803 26.0748 5.72759 26.0748 6.43928V13.8598C26.0748 14.5853 26.0748 15.0488 25.2164 15.116C24.8521 15.1313 24.5879 15.1488 24.5879 15.397C24.5879 15.6605 24.82 15.6452 24.9521 15.6452C25.266 15.6452 26.6872 15.5795 26.9843 15.5795C27.0507 15.5795 28.7529 15.6452 29.0828 15.6452C29.2149 15.6452 29.4471 15.6605 29.4471 15.4131C29.4471 15.1496 29.1989 15.1321 28.8186 15.1167C27.9434 15.0656 27.9434 14.5861 27.9434 13.8605V10.7196C27.9434 10.4233 27.9762 10.3233 28.2741 10.3233C29.0675 10.3233 29.1507 10.3889 29.5303 11.1503L31.6449 15.1321C31.8427 15.4956 31.9091 15.6613 32.223 15.6613C32.3887 15.6613 34.3055 15.6613 34.5201 15.6613C34.6354 15.6613 34.8172 15.6284 34.8172 15.4459C34.8515 15.2467 34.7515 15.1795 34.3887 15.1138ZM28.8354 9.85902C27.9602 9.85902 27.9602 9.82471 27.9602 9.21449V6.27285C27.9602 5.59475 27.9762 5.16555 28.7865 5.16555C30.9507 5.16555 31.1989 7.03272 31.1989 7.66119C31.1989 9.85902 29.4638 9.85902 28.8354 9.85902Z" fill="#6B665F"/>
<path d="M45.3614 15.1138C44.8665 15.0481 44.6343 14.6007 44.2701 13.989L42.5679 10.9838C42.1716 10.2554 41.9577 10.14 41.7263 10.0072C42.3205 9.89186 44.1219 9.46266 44.1219 7.41228C44.1219 6.80133 43.8577 4.66992 40.7679 4.66992C40.238 4.66992 37.9255 4.73562 37.4452 4.73562C37.2306 4.73562 36.3715 4.66992 36.2058 4.66992C35.627 4.66992 35.5605 4.66992 35.5605 4.91737C35.5605 5.16555 35.8087 5.18161 36.189 5.19912C37.0482 5.24803 37.0481 5.72759 37.0481 6.43928V13.8598C37.0481 14.5853 37.0482 15.0488 36.189 15.116C35.8248 15.1313 35.5605 15.1488 35.5605 15.397C35.5605 15.6605 35.7927 15.6452 35.9255 15.6452C36.2394 15.6452 37.6598 15.5795 37.9569 15.5795C38.0233 15.5795 39.7263 15.6452 40.0562 15.6452C40.1898 15.6452 40.4197 15.6605 40.4197 15.4131C40.4197 15.1496 40.1715 15.1321 39.792 15.1167C38.916 15.0656 38.916 14.5861 38.916 13.8605V10.7196C38.916 10.4233 38.9496 10.3233 39.246 10.3233C40.0401 10.3233 40.1226 10.3889 40.5022 11.1503L42.6175 15.1321C42.8154 15.4956 42.881 15.6613 43.1956 15.6613C43.3606 15.6613 45.2781 15.6613 45.492 15.6613C45.6081 15.6613 45.7898 15.6284 45.7898 15.4459C45.8081 15.2467 45.7256 15.1795 45.3614 15.1138ZM39.8088 9.85902C38.9321 9.85902 38.9321 9.82471 38.9321 9.21449V6.27285C38.9321 5.59475 38.9489 5.16555 39.7584 5.16555C41.9226 5.16555 42.1723 7.03272 42.1723 7.66119C42.1555 9.85902 40.4372 9.85902 39.8088 9.85902Z" fill="#6B665F"/>
<path d="M94.3458 15.1134C93.8502 15.0477 93.6188 14.6002 93.2553 13.9885L91.5691 10.9987C91.172 10.2717 90.9574 10.1564 90.7275 10.0235C91.3209 9.90676 93.1239 9.47756 93.1239 7.42864C93.1239 6.81768 92.8589 4.68555 89.7677 4.68555C89.2385 4.68555 86.9253 4.75197 86.4465 4.75197C86.2311 4.75197 85.3713 4.68555 85.207 4.68555C84.6282 4.68555 84.5625 4.68555 84.5625 4.93372C84.5625 5.18117 84.8099 5.19796 85.1895 5.21475C86.0486 5.26365 86.0486 5.74395 86.0486 6.45417V13.8747C86.0486 14.6002 86.0486 15.0637 85.1895 15.1294C84.826 15.1477 84.5625 15.1637 84.5625 15.4119C84.5625 15.6754 84.7924 15.6601 84.926 15.6601C85.2399 15.6601 86.6611 15.5929 86.9574 15.5929C87.0246 15.5929 88.7268 15.6601 89.0567 15.6601C89.1895 15.6601 89.4202 15.6754 89.4202 15.4294C89.4202 15.1645 89.1735 15.1484 88.7925 15.1302C87.918 15.082 87.918 14.601 87.918 13.8754V10.736C87.918 10.4367 87.9494 10.3381 88.2472 10.3381C89.0414 10.3381 89.1239 10.4053 89.5042 11.1652L91.6188 15.1484C91.8166 15.5119 91.883 15.6761 92.1969 15.6761C92.364 15.6761 94.2801 15.6761 94.494 15.6761C94.6093 15.6761 94.7911 15.6433 94.7911 15.4608C94.8093 15.2462 94.7254 15.1791 94.3458 15.1134ZM88.7932 9.85858C87.9187 9.85858 87.9187 9.82428 87.9187 9.21405V6.27242C87.9187 5.59431 87.9348 5.16511 88.7436 5.16511C90.91 5.16511 91.1574 7.03228 91.1574 7.66075C91.1567 9.85858 89.4209 9.85858 88.7932 9.85858Z" fill="#6B665F"/>
</g>
<defs>
<clipPath id="clip0_2198_20143">
<rect width="97" height="15.8558" fill="white"/>
</clipPath>
</defs>
</svg>
